<?xml version="1.0" encoding="UTF-8"?>
<!--Generator: Apple Native CoreSVG 326-->
<!DOCTYPE svg
PUBLIC "-//W3C//DTD SVG 1.1//EN"
       "http://www.w3.org/Graphics/SVG/1.1/DTD/svg11.dtd">
<svg version="1.1" xmlns="http://www.w3.org/2000/svg" xmlns:xlink="http://www.w3.org/1999/xlink" viewBox="0 0 635.986 636.475">
 <g>
  <rect height="636.475" opacity="0" width="635.986" x="0" y="0"/>
  <path d="M317.871 635.986C493.408 635.986 635.986 493.652 635.986 318.115C635.986 142.578 493.408 0 317.871 0C142.334 0 0 142.578 0 318.115C0 493.652 142.334 635.986 317.871 635.986ZM317.871 590.576C167.236 590.576 45.4102 468.75 45.4102 318.115C45.4102 167.48 167.236 45.6543 317.871 45.6543C468.506 45.6543 590.332 167.48 590.332 318.115C590.332 468.75 468.506 590.576 317.871 590.576Z" fill="#32d74b"/>
  <path d="M283.447 467.529C292.48 467.529 299.805 463.379 305.176 455.078L454.834 220.459C458.008 215.576 461.182 209.473 461.182 203.613C461.182 191.65 450.439 183.594 439.453 183.594C432.373 183.594 425.537 187.988 420.654 195.801L282.471 415.283L213.623 329.102C207.275 320.801 201.172 318.359 193.848 318.359C182.129 318.359 172.852 327.881 172.852 339.844C172.852 345.703 175.293 351.562 179.199 356.689L260.742 455.078C267.578 463.867 274.414 467.529 283.447 467.529Z" fill="#32d74b"/>
 </g>
</svg>
