<?xml version="1.0" encoding="UTF-8"?>
<!--Generator: Apple Native CoreSVG 326-->
<!DOCTYPE svg
PUBLIC "-//W3C//DTD SVG 1.1//EN"
       "http://www.w3.org/Graphics/SVG/1.1/DTD/svg11.dtd">
<svg version="1.1" xmlns="http://www.w3.org/2000/svg" xmlns:xlink="http://www.w3.org/1999/xlink" viewBox="0 0 1001.95 726.807">
 <g>
  <rect height="726.807" opacity="0" width="1001.95" x="0" y="0"/>
  <path d="M712.583 136.719L218.262 136.719C209.42 136.719 201.587 137.997 194.872 140.532L469.727 387.695C479.98 396.973 489.99 401.367 500.732 401.367C511.475 401.367 521.729 396.973 531.982 387.695L728.353 210.961C734.476 223.038 742.342 234.09 751.652 243.776L632.752 350.757L834.719 552.508C835.707 547.896 836.182 542.825 836.182 537.354L836.182 288.082C843.005 289.27 850.034 289.795 857.178 289.795C864.15 289.795 871.016 289.292 877.686 288.148L877.686 537.354C877.686 599.609 845.459 631.592 790.039 631.592L219.238 631.592C156.738 631.592 124.268 599.609 124.268 537.354L124.268 189.453C124.268 127.197 156.494 95.459 211.914 95.459L721.163 95.459C716.206 108.399 713.232 122.268 712.583 136.719ZM556.152 419.678C538.574 435.547 520.264 442.871 500.732 442.871C481.201 442.871 463.135 435.547 445.557 419.678L398.76 377.607L191.311 585.056C198.797 588.552 207.827 590.332 218.262 590.332L783.691 590.332C794.146 590.332 803.167 588.545 810.631 585.045L603.059 377.473ZM165.527 189.453L165.527 537.109C165.527 542.667 166.017 547.81 167.03 552.482L369.05 350.897L168.022 170.17C166.356 175.871 165.527 182.322 165.527 189.453Z" fill="#46bb93"/>
  <path d="M857.178 250.977C915.039 250.977 963.135 203.125 963.135 145.02C963.135 86.9141 915.039 39.0625 857.178 39.0625C799.072 39.0625 751.221 86.9141 751.221 145.02C751.221 203.125 799.072 250.977 857.178 250.977Z" fill="#46bb93"/>
 </g>
</svg>
