<?xml version="1.0" encoding="UTF-8"?>
<!--Generator: Apple Native CoreSVG 326-->
<!DOCTYPE svg
PUBLIC "-//W3C//DTD SVG 1.1//EN"
       "http://www.w3.org/Graphics/SVG/1.1/DTD/svg11.dtd">
<svg version="1.1" xmlns="http://www.w3.org/2000/svg" xmlns:xlink="http://www.w3.org/1999/xlink" viewBox="0 0 706.055 833.252">
 <g>
  <rect height="833.252" opacity="0" width="706.055" x="0" y="0"/>
  <path d="M614.99 163.574L614.99 514.015C603.668 496.315 588.958 480.978 571.777 468.935L571.777 164.307C571.777 130.371 552.734 111.816 518.555 111.816L187.256 111.816C152.1 111.816 134.033 130.859 134.033 164.307L134.033 645.508C134.033 678.955 152.1 697.998 187.256 697.998L345.068 697.998C357.466 715.435 373.292 730.251 391.576 741.455L184.814 741.455C122.803 741.455 90.8203 709.229 90.8203 646.24L90.8203 163.574C90.8203 100.586 122.803 68.6035 184.814 68.6035L520.996 68.6035C583.496 68.6035 614.99 100.342 614.99 163.574Z" fill="#46bb93"/>
  <path d="M492.188 332.764C492.188 342.285 484.863 349.854 475.098 349.854L230.957 349.854C220.947 349.854 213.623 342.285 213.623 332.764C213.623 323.242 220.947 315.918 230.957 315.918L475.098 315.918C484.863 315.918 492.188 323.242 492.188 332.764Z" fill="#46bb93"/>
  <path d="M492.188 222.412C492.188 231.934 484.863 239.502 475.098 239.502L230.957 239.502C220.947 239.502 213.623 231.934 213.623 222.412C213.623 213.135 220.947 205.811 230.957 205.811L475.098 205.811C484.863 205.811 492.188 213.135 492.188 222.412Z" fill="#46bb93"/>
  <path d="M477.783 727.539C546.143 727.539 602.539 671.387 602.539 602.539C602.539 534.18 546.143 477.539 477.783 477.539C409.18 477.539 353.027 534.18 353.027 602.539C353.027 671.387 409.18 727.539 477.783 727.539ZM477.783 690.674C429.688 690.674 389.648 650.635 389.648 602.295C389.648 554.443 429.688 514.404 477.783 514.404C526.123 514.404 565.918 554.443 565.918 602.295C565.918 650.879 526.123 690.674 477.783 690.674ZM645.02 794.434C657.959 794.434 667.236 784.668 667.236 771.24C667.236 764.893 664.062 759.033 659.424 754.395L574.463 668.945L541.016 701.416L625.732 785.645C631.348 791.504 637.207 794.434 645.02 794.434Z" fill="#46bb93"/>
 </g>
</svg>
