<?xml version="1.0" encoding="UTF-8"?>
<!--Generator: Apple Native CoreSVG 326-->
<!DOCTYPE svg
PUBLIC "-//W3C//DTD SVG 1.1//EN"
       "http://www.w3.org/Graphics/SVG/1.1/DTD/svg11.dtd">
<svg version="1.1" xmlns="http://www.w3.org/2000/svg" xmlns:xlink="http://www.w3.org/1999/xlink" viewBox="0 0 610.107 615.967">
 <g>
  <rect height="615.967" opacity="0" width="610.107" x="0" y="0"/>
  <path d="M0 247.07C0 383.057 110.84 493.896 247.07 493.896C302.002 493.896 352.539 475.83 393.555 445.312L554.443 606.445C560.547 612.793 569.092 615.967 577.881 615.967C597.168 615.967 610.107 601.318 610.107 583.008C610.107 573.975 606.934 566.162 601.074 560.059L440.918 399.17C474.121 357.422 494.141 304.443 494.141 247.07C494.141 110.84 383.301 0 247.07 0C110.84 0 0 110.84 0 247.07ZM45.6543 247.07C45.6543 135.986 135.986 45.6543 247.07 45.6543C358.154 45.6543 448.242 135.986 448.242 247.07C448.242 357.91 358.154 448.242 247.07 448.242C135.986 448.242 45.6543 357.91 45.6543 247.07ZM134.521 234.619C134.521 250.732 152.1 252.93 160.889 244.629L190.186 215.088L277.832 302.734L247.803 332.52C238.281 341.797 241.699 358.643 257.812 358.643L341.064 358.643C351.807 358.643 358.398 351.318 358.398 338.623L358.398 258.789C358.398 242.676 340.82 240.479 332.031 248.779L302.979 278.076L215.332 190.43L245.117 160.889C254.639 151.611 251.221 135.01 235.107 135.01L151.855 135.01C141.113 135.01 134.521 142.09 134.521 154.785Z" fill="#46bb93"/>
 </g>
</svg>
